<?xml version="1.0" standalone="no"?>
<!DOCTYPE svg PUBLIC "-//W3C//DTD SVG 20010904//EN"
 "http://www.w3.org/TR/2001/REC-SVG-20010904/DTD/svg10.dtd">
<svg version="1.0" xmlns="http://www.w3.org/2000/svg"
 width="512.000000pt" height="512.000000pt" viewBox="0 0 512.000000 512.000000"
 preserveAspectRatio="xMidYMid meet">
<metadata>
Created by potrace 1.14, written by Peter Selinger 2001-2017
</metadata>
<g transform="translate(0.000000,512.000000) scale(0.100000,-0.100000)"
fill="#000000" stroke="none">
<path d="M2832 5092 c-37 -10 -83 -32 -114 -55 -31 -23 -91 -52 -152 -74 -56
-19 -132 -46 -171 -59 -49 -17 -109 -52 -199 -117 -105 -75 -139 -106 -185
-167 -31 -41 -59 -77 -62 -80 -18 -16 -45 -83 -93 -230 -51 -158 -53 -167 -40
-208 6 -23 12 -46 13 -50 0 -4 10 -50 22 -102 19 -84 30 -110 102 -226 77
-125 84 -133 175 -200 52 -38 124 -80 160 -94 78 -30 104 -60 108 -127 2 -26
3 -48 4 -48 1 0 4 -26 6 -57 4 -46 2 -58 -9 -58 -17 0 -215 -84 -357 -152
-173 -83 -223 -105 -275 -126 -101 -39 -281 -113 -313 -128 -19 -9 -54 -17
-79 -19 -25 -2 -48 -7 -53 -11 -4 -5 -15 -45 -25 -89 -10 -44 -31 -107 -46
-140 -114 -252 -154 -334 -191 -388 -24 -34 -46 -64 -49 -67 -8 -7 -3 -778 5
-820 6 -30 31 -90 94 -230 11 -25 44 -99 73 -165 30 -68 109 -212 183 -333 72
-116 138 -223 146 -237 8 -14 78 -71 155 -127 l140 -103 1156 0 1157 -1 -8 20
c-4 12 -11 59 -15 106 -4 47 -9 92 -10 100 -2 8 -6 44 -10 80 -3 36 -8 76 -10
90 -2 14 -7 57 -10 95 -4 39 -8 81 -10 95 -2 14 -6 50 -9 80 -3 30 -10 93 -16
140 -5 47 -12 108 -15 135 -3 28 -8 75 -11 105 -3 30 -12 78 -19 105 -8 28
-17 93 -20 145 -4 52 -8 118 -10 145 -2 28 -12 102 -24 165 -53 309 -50 415
22 595 63 159 109 301 105 327 -3 20 -9 23 -51 25 -85 3 -243 60 -357 129 -97
58 -407 194 -451 197 -22 1 -21 6 22 123 l31 81 81 54 c44 30 92 65 105 79 47
49 93 129 97 173 2 23 7 71 10 107 13 138 8 128 104 228 95 99 202 259 236
352 46 128 47 168 6 341 -36 154 -62 206 -176 353 -65 84 -72 90 -159 131 -71
34 -122 49 -231 70 -77 15 -165 38 -195 52 -205 95 -188 91 -288 65z m-662
-2322 c6 -11 8 -20 6 -20 -3 0 -10 9 -16 20 -6 11 -8 20 -6 20 3 0 10 -9 16
-20z m85 -130 c10 -11 16 -20 13 -20 -3 0 -13 9 -23 20 -10 11 -16 20 -13 20
3 0 13 -9 23 -20z m81 -82 l19 -23 -25 20 c-14 11 -27 21 -29 22 -2 2 0 3 6 3
5 0 18 -10 29 -22z m765 -131 c-10 -9 -11 -8 -5 6 3 10 9 15 12 12 3 -3 0 -11
-7 -18z m-20 -44 c-12 -20 -14 -14 -5 12 4 9 9 14 11 11 3 -2 0 -13 -6 -23z
m-456 -11 c-3 -3 -11 0 -18 7 -9 10 -8 11 6 5 10 -3 15 -9 12 -12z"/>
</g>
</svg>
